<?xml version="1.0" standalone="no"?>
<!DOCTYPE svg PUBLIC "-//W3C//DTD SVG 20010904//EN"
 "http://www.w3.org/TR/2001/REC-SVG-20010904/DTD/svg10.dtd">
<svg version="1.0" xmlns="http://www.w3.org/2000/svg"
 width="500.000000pt" height="500.000000pt" viewBox="0 0 500.000000 500.000000"
 preserveAspectRatio="xMidYMid meet">
<metadata>
Created by potrace 1.14, written by Peter Selinger 2001-2017
</metadata>
<g transform="translate(0.000000,500.000000) scale(0.100000,-0.100000)"
fill="#000000" stroke="none">
<path d="M2348 4494 c-2 -1 -34 -5 -73 -8 -38 -3 -81 -8 -95 -11 -14 -3 -36
-7 -50 -10 -90 -17 -117 -24 -270 -70 -10 -3 -154 -59 -230 -89 -30 -12 -251
-152 -332 -211 -111 -80 -330 -299 -405 -405 -209 -295 -330 -597 -378 -945
-14 -100 -14 -405 0 -490 70 -438 230 -783 513 -1109 48 -54 102 -110 120
-125 18 -14 75 -58 125 -98 134 -106 144 -113 154 -113 5 0 32 -16 61 -35 29
-19 55 -34 57 -34 3 -1 37 -17 77 -37 115 -58 318 -132 408 -149 14 -3 36 -7
50 -10 223 -45 401 -57 585 -41 84 8 122 14 205 32 14 3 39 7 55 10 54 9 205
54 283 85 93 36 235 101 242 110 3 4 35 22 72 41 66 35 173 109 252 177 88 75
264 260 327 344 71 95 171 257 184 297 4 14 11 27 15 30 3 3 21 41 39 85 18
44 36 89 41 100 16 37 62 191 75 255 2 8 11 48 19 88 24 109 31 192 31 352 0
211 -22 348 -92 580 -28 94 -112 289 -155 363 -15 26 -28 50 -28 53 0 7 -49
81 -95 144 -123 169 -290 342 -433 448 -86 64 -323 212 -338 212 -6 0 -55 18
-109 41 -108 44 -230 82 -337 104 -153 33 -198 37 -390 40 -98 1 -179 1 -180
-1z m579 -787 c61 -17 194 -83 258 -127 24 -16 48 -30 54 -30 6 0 11 -4 11 -9
0 -5 8 -12 18 -15 26 -9 191 -172 246 -244 27 -35 60 -85 73 -110 58 -108 83
-160 83 -173 -1 -8 -16 16 -35 53 -145 288 -383 506 -675 618 -138 53 -154 62
-115 56 17 -2 53 -11 82 -19z m-1542 -1793 c95 -182 220 -324 394 -449 48 -34
25 -32 -30 3 -47 30 -160 130 -194 172 -11 13 -33 37 -48 53 -46 47 -121 170
-167 275 -35 77 -6 43 45 -54z m536 -532 c51 -27 113 -54 137 -62 23 -7 42
-17 42 -22 0 -15 -21 -9 -103 31 -45 21 -91 42 -102 45 -19 6 -85 56 -74 56 3
0 48 -22 100 -48z m236 -98 c-3 -3 -12 -4 -19 -1 -8 3 -5 6 6 6 11 1 17 -2 13
-5z m93 -25 c0 -10 -40 -3 -52 9 -5 5 5 7 22 4 16 -2 30 -8 30 -13z m125 -19
c8 -13 -45 -13 -65 0 -11 7 -6 10 22 10 20 0 40 -4 43 -10z"/>
</g>
</svg>
